<mxfile host="app.diagrams.net" agent="Mozilla/5.0 (Windows NT 10.0; Win64; x64) AppleWebKit/537.36 (KHTML, like Gecko) Chrome/135.0.0.0 Safari/537.36" version="26.2.14">
  <diagram name="Page-1" id="VReyWgoa0ic8nUrWGsbz">
    <mxGraphModel dx="1737" dy="937" grid="0" gridSize="10" guides="1" tooltips="1" connect="1" arrows="1" fold="1" page="1" pageScale="1" pageWidth="827" pageHeight="1169" math="0" shadow="0">
      <root>
        <mxCell id="0" />
        <mxCell id="1" parent="0" />
        <mxCell id="BqAEA5iobn2bH8e7t-CC-1" value="Main PowerShell Script" style="whiteSpace=wrap;strokeWidth=2;fontSize=18;fillColor=#d5e8d4;strokeColor=#82b366;" vertex="1" parent="1">
          <mxGeometry x="423" y="20" width="223" height="54" as="geometry" />
        </mxCell>
        <mxCell id="BqAEA5iobn2bH8e7t-CC-2" value="Copy Data from CSV to Excel" style="whiteSpace=wrap;strokeWidth=2;fontSize=18;" vertex="1" parent="1">
          <mxGeometry x="404" y="124" width="260" height="78" as="geometry" />
        </mxCell>
        <mxCell id="BqAEA5iobn2bH8e7t-CC-3" value="Copy Successful?" style="rhombus;strokeWidth=2;whiteSpace=wrap;fontSize=18;fillColor=#fff2cc;strokeColor=#d6b656;" vertex="1" parent="1">
          <mxGeometry x="447" y="252" width="173" height="173" as="geometry" />
        </mxCell>
        <mxCell id="BqAEA5iobn2bH8e7t-CC-4" value="Delete CSV File" style="whiteSpace=wrap;strokeWidth=2;fontSize=18;" vertex="1" parent="1">
          <mxGeometry x="334" y="497" width="170" height="54" as="geometry" />
        </mxCell>
        <mxCell id="BqAEA5iobn2bH8e7t-CC-5" value="Stop" style="whiteSpace=wrap;strokeWidth=2;fontSize=18;fillColor=#f8cecc;strokeColor=#b85450;" vertex="1" parent="1">
          <mxGeometry x="558" y="497" width="190" height="54" as="geometry" />
        </mxCell>
        <mxCell id="BqAEA5iobn2bH8e7t-CC-6" value="Run powershell1 script" style="whiteSpace=wrap;strokeWidth=2;fontSize=18;" vertex="1" parent="1">
          <mxGeometry x="315" y="601" width="207" height="54" as="geometry" />
        </mxCell>
        <mxCell id="BqAEA5iobn2bH8e7t-CC-7" value="Read Data from Excel" style="whiteSpace=wrap;strokeWidth=2;fontSize=18;" vertex="1" parent="1">
          <mxGeometry x="312" y="705" width="214" height="54" as="geometry" />
        </mxCell>
        <mxCell id="BqAEA5iobn2bH8e7t-CC-8" value="Trigger Playwright Python Script" style="whiteSpace=wrap;strokeWidth=2;fontSize=18;" vertex="1" parent="1">
          <mxGeometry x="289" y="809" width="260" height="78" as="geometry" />
        </mxCell>
        <mxCell id="BqAEA5iobn2bH8e7t-CC-9" value="Change User Passwords in Application" style="whiteSpace=wrap;strokeWidth=2;fontSize=18;" vertex="1" parent="1">
          <mxGeometry x="289" y="937" width="260" height="78" as="geometry" />
        </mxCell>
        <mxCell id="BqAEA5iobn2bH8e7t-CC-10" value="All Users App Password&#xa; Change Successful?" style="rhombus;strokeWidth=2;whiteSpace=wrap;fontSize=18;fillColor=#fff2cc;strokeColor=#d6b656;" vertex="1" parent="1">
          <mxGeometry x="308" y="1065" width="221" height="221" as="geometry" />
        </mxCell>
        <mxCell id="BqAEA5iobn2bH8e7t-CC-11" value="Run powershell2.ps1" style="whiteSpace=wrap;strokeWidth=2;fontSize=18;" vertex="1" parent="1">
          <mxGeometry x="174" y="1371" width="207" height="54" as="geometry" />
        </mxCell>
        <mxCell id="BqAEA5iobn2bH8e7t-CC-12" value="Stop" style="whiteSpace=wrap;strokeWidth=2;fontSize=18;fillColor=#f8cecc;strokeColor=#b85450;" vertex="1" parent="1">
          <mxGeometry x="462" y="1371" width="196" height="52" as="geometry" />
        </mxCell>
        <mxCell id="BqAEA5iobn2bH8e7t-CC-13" value="Trigger Okta Workflows" style="whiteSpace=wrap;strokeWidth=2;fontSize=18;" vertex="1" parent="1">
          <mxGeometry x="164" y="1487" width="226" height="54" as="geometry" />
        </mxCell>
        <mxCell id="BqAEA5iobn2bH8e7t-CC-14" value="Change User Passwords in Okta" style="whiteSpace=wrap;strokeWidth=2;fontSize=18;" vertex="1" parent="1">
          <mxGeometry x="144" y="1684" width="260" height="78" as="geometry" />
        </mxCell>
        <mxCell id="BqAEA5iobn2bH8e7t-CC-15" value="Create User Records in Okta Workflows Table" style="whiteSpace=wrap;strokeWidth=2;fontSize=18;" vertex="1" parent="1">
          <mxGeometry x="147.5" y="1795" width="260" height="78" as="geometry" />
        </mxCell>
        <mxCell id="BqAEA5iobn2bH8e7t-CC-16" value="Read Data from Excel" style="whiteSpace=wrap;strokeWidth=2;fontSize=18;" vertex="1" parent="1">
          <mxGeometry x="161" y="1584" width="226" height="63" as="geometry" />
        </mxCell>
        <mxCell id="BqAEA5iobn2bH8e7t-CC-17" value="All Users Okta Password&#xa; Change Successful?" style="rhombus;strokeWidth=2;whiteSpace=wrap;fontSize=18;fillColor=#fff2cc;strokeColor=#d6b656;" vertex="1" parent="1">
          <mxGeometry x="163" y="1929" width="229" height="229" as="geometry" />
        </mxCell>
        <mxCell id="BqAEA5iobn2bH8e7t-CC-18" value="Delete Data in Excel File" style="whiteSpace=wrap;strokeWidth=2;fontSize=18;" vertex="1" parent="1">
          <mxGeometry x="16" y="2252" width="228" height="54" as="geometry" />
        </mxCell>
        <mxCell id="BqAEA5iobn2bH8e7t-CC-19" value="Stop" style="whiteSpace=wrap;strokeWidth=2;fontSize=18;fillColor=#f8cecc;strokeColor=#b85450;" vertex="1" parent="1">
          <mxGeometry x="298" y="2252" width="246" height="54" as="geometry" />
        </mxCell>
        <mxCell id="BqAEA5iobn2bH8e7t-CC-20" value="Process Complete" style="whiteSpace=wrap;strokeWidth=2;fontSize=18;fillColor=#d5e8d4;strokeColor=#82b366;" vertex="1" parent="1">
          <mxGeometry x="37" y="2371" width="186" height="54" as="geometry" />
        </mxCell>
        <mxCell id="BqAEA5iobn2bH8e7t-CC-21" value="" style="curved=1;startArrow=none;endArrow=block;exitX=0.5;exitY=1;entryX=0.5;entryY=0;rounded=0;strokeWidth=2;fontSize=18;" edge="1" parent="1" source="BqAEA5iobn2bH8e7t-CC-1" target="BqAEA5iobn2bH8e7t-CC-2">
          <mxGeometry relative="1" as="geometry">
            <Array as="points" />
          </mxGeometry>
        </mxCell>
        <mxCell id="BqAEA5iobn2bH8e7t-CC-22" value="" style="curved=1;startArrow=none;endArrow=block;exitX=0.5;exitY=1;entryX=0.5;entryY=0;rounded=0;strokeWidth=2;fontSize=18;" edge="1" parent="1" source="BqAEA5iobn2bH8e7t-CC-2" target="BqAEA5iobn2bH8e7t-CC-3">
          <mxGeometry relative="1" as="geometry">
            <Array as="points" />
          </mxGeometry>
        </mxCell>
        <mxCell id="BqAEA5iobn2bH8e7t-CC-23" value="Yes" style="curved=0;startArrow=none;endArrow=block;entryX=0.5;entryY=0.01;rounded=0;strokeWidth=2;fontSize=18;" edge="1" parent="1">
          <mxGeometry relative="1" as="geometry">
            <Array as="points">
              <mxPoint x="416" y="342" />
              <mxPoint x="413" y="461" />
            </Array>
            <mxPoint x="447" y="342" as="sourcePoint" />
            <mxPoint x="413" y="497" as="targetPoint" />
          </mxGeometry>
        </mxCell>
        <mxCell id="BqAEA5iobn2bH8e7t-CC-25" value="" style="curved=1;startArrow=none;endArrow=block;exitX=0.5;exitY=1.01;entryX=0.5;entryY=0.01;rounded=0;strokeWidth=2;fontSize=18;" edge="1" parent="1" source="BqAEA5iobn2bH8e7t-CC-4" target="BqAEA5iobn2bH8e7t-CC-6">
          <mxGeometry relative="1" as="geometry">
            <Array as="points" />
          </mxGeometry>
        </mxCell>
        <mxCell id="BqAEA5iobn2bH8e7t-CC-26" value="" style="curved=1;startArrow=none;endArrow=block;exitX=0.5;exitY=1.01;entryX=0.5;entryY=0.01;rounded=0;strokeWidth=2;fontSize=18;" edge="1" parent="1" source="BqAEA5iobn2bH8e7t-CC-6" target="BqAEA5iobn2bH8e7t-CC-7">
          <mxGeometry relative="1" as="geometry">
            <Array as="points" />
          </mxGeometry>
        </mxCell>
        <mxCell id="BqAEA5iobn2bH8e7t-CC-27" value="" style="curved=1;startArrow=none;endArrow=block;exitX=0.5;exitY=1.01;entryX=0.5;entryY=0.01;rounded=0;strokeWidth=2;fontSize=18;" edge="1" parent="1" source="BqAEA5iobn2bH8e7t-CC-7" target="BqAEA5iobn2bH8e7t-CC-8">
          <mxGeometry relative="1" as="geometry">
            <Array as="points" />
          </mxGeometry>
        </mxCell>
        <mxCell id="BqAEA5iobn2bH8e7t-CC-28" value="" style="curved=1;startArrow=none;endArrow=block;exitX=0.5;exitY=1.01;entryX=0.5;entryY=0.01;rounded=0;strokeWidth=2;fontSize=18;" edge="1" parent="1" source="BqAEA5iobn2bH8e7t-CC-8" target="BqAEA5iobn2bH8e7t-CC-9">
          <mxGeometry relative="1" as="geometry">
            <Array as="points" />
          </mxGeometry>
        </mxCell>
        <mxCell id="BqAEA5iobn2bH8e7t-CC-29" value="" style="curved=1;startArrow=none;endArrow=block;exitX=0.5;exitY=1.01;entryX=0.5;entryY=0;rounded=0;strokeWidth=2;fontSize=18;" edge="1" parent="1" source="BqAEA5iobn2bH8e7t-CC-9" target="BqAEA5iobn2bH8e7t-CC-10">
          <mxGeometry relative="1" as="geometry">
            <Array as="points" />
          </mxGeometry>
        </mxCell>
        <mxCell id="BqAEA5iobn2bH8e7t-CC-32" value="" style="curved=1;startArrow=none;endArrow=block;exitX=0.5;exitY=1;entryX=0.5;entryY=0;rounded=0;strokeWidth=2;fontSize=18;" edge="1" parent="1" source="BqAEA5iobn2bH8e7t-CC-11" target="BqAEA5iobn2bH8e7t-CC-13">
          <mxGeometry relative="1" as="geometry">
            <Array as="points" />
          </mxGeometry>
        </mxCell>
        <mxCell id="BqAEA5iobn2bH8e7t-CC-39" value="" style="curved=1;startArrow=none;endArrow=block;exitX=0.5;exitY=1.01;entryX=0.5;entryY=0.01;rounded=0;strokeWidth=2;fontSize=18;" edge="1" parent="1" source="BqAEA5iobn2bH8e7t-CC-18" target="BqAEA5iobn2bH8e7t-CC-20">
          <mxGeometry relative="1" as="geometry">
            <Array as="points" />
          </mxGeometry>
        </mxCell>
        <mxCell id="BqAEA5iobn2bH8e7t-CC-40" value="" style="curved=1;startArrow=none;endArrow=block;exitX=0.5;exitY=1;rounded=0;strokeWidth=2;fontSize=18;" edge="1" parent="1">
          <mxGeometry relative="1" as="geometry">
            <Array as="points" />
            <mxPoint x="274.5" y="1541" as="sourcePoint" />
            <mxPoint x="274" y="1585" as="targetPoint" />
          </mxGeometry>
        </mxCell>
        <mxCell id="BqAEA5iobn2bH8e7t-CC-41" value="" style="curved=1;startArrow=none;endArrow=block;exitX=0.5;exitY=1;rounded=0;strokeWidth=2;fontSize=18;" edge="1" parent="1">
          <mxGeometry relative="1" as="geometry">
            <Array as="points" />
            <mxPoint x="274.5" y="1647" as="sourcePoint" />
            <mxPoint x="274" y="1685" as="targetPoint" />
          </mxGeometry>
        </mxCell>
        <mxCell id="BqAEA5iobn2bH8e7t-CC-44" value="" style="curved=1;startArrow=none;endArrow=block;exitX=0.5;exitY=1;rounded=0;strokeWidth=2;fontSize=18;" edge="1" parent="1">
          <mxGeometry relative="1" as="geometry">
            <Array as="points" />
            <mxPoint x="274.07" y="1762" as="sourcePoint" />
            <mxPoint x="274" y="1795" as="targetPoint" />
          </mxGeometry>
        </mxCell>
        <mxCell id="BqAEA5iobn2bH8e7t-CC-46" value="" style="curved=1;startArrow=none;endArrow=block;exitX=0.5;exitY=1;entryX=0.5;entryY=0;rounded=0;strokeWidth=2;fontSize=18;" edge="1" parent="1">
          <mxGeometry relative="1" as="geometry">
            <Array as="points" />
            <mxPoint x="277.38" y="1873" as="sourcePoint" />
            <mxPoint x="276.38" y="1935" as="targetPoint" />
          </mxGeometry>
        </mxCell>
        <mxCell id="BqAEA5iobn2bH8e7t-CC-51" value="No" style="curved=0;startArrow=none;endArrow=block;rounded=0;strokeWidth=2;fontSize=18;" edge="1" parent="1">
          <mxGeometry relative="1" as="geometry">
            <Array as="points">
              <mxPoint x="650.9999999999991" y="338" />
            </Array>
            <mxPoint x="619.9999999999991" y="338" as="sourcePoint" />
            <mxPoint x="651" y="492" as="targetPoint" />
          </mxGeometry>
        </mxCell>
        <mxCell id="BqAEA5iobn2bH8e7t-CC-52" value="Yes" style="curved=0;startArrow=none;endArrow=block;entryX=0.5;entryY=0;rounded=0;strokeWidth=2;fontSize=18;entryDx=0;entryDy=0;" edge="1" parent="1" target="BqAEA5iobn2bH8e7t-CC-11">
          <mxGeometry relative="1" as="geometry">
            <Array as="points">
              <mxPoint x="281" y="1176" />
              <mxPoint x="278" y="1295" />
            </Array>
            <mxPoint x="312" y="1176" as="sourcePoint" />
            <mxPoint x="278" y="1331" as="targetPoint" />
          </mxGeometry>
        </mxCell>
        <mxCell id="BqAEA5iobn2bH8e7t-CC-53" value="No" style="curved=0;startArrow=none;endArrow=block;rounded=0;strokeWidth=2;fontSize=18;entryX=0.5;entryY=0;entryDx=0;entryDy=0;" edge="1" parent="1" target="BqAEA5iobn2bH8e7t-CC-12">
          <mxGeometry relative="1" as="geometry">
            <Array as="points">
              <mxPoint x="559.9999999999991" y="1176" />
            </Array>
            <mxPoint x="528.9999999999991" y="1176" as="sourcePoint" />
            <mxPoint x="563" y="1333" as="targetPoint" />
          </mxGeometry>
        </mxCell>
        <mxCell id="BqAEA5iobn2bH8e7t-CC-54" value="Yes" style="curved=0;startArrow=none;endArrow=block;rounded=0;strokeWidth=2;fontSize=18;" edge="1" parent="1">
          <mxGeometry relative="1" as="geometry">
            <Array as="points">
              <mxPoint x="133" y="2045" />
              <mxPoint x="130" y="2164" />
            </Array>
            <mxPoint x="164" y="2045" as="sourcePoint" />
            <mxPoint x="129" y="2251" as="targetPoint" />
          </mxGeometry>
        </mxCell>
        <mxCell id="BqAEA5iobn2bH8e7t-CC-55" value="No" style="curved=0;startArrow=none;endArrow=block;rounded=0;strokeWidth=2;fontSize=18;" edge="1" parent="1">
          <mxGeometry relative="1" as="geometry">
            <Array as="points">
              <mxPoint x="422.9999999999991" y="2042" />
            </Array>
            <mxPoint x="391.9999999999991" y="2042" as="sourcePoint" />
            <mxPoint x="423" y="2251" as="targetPoint" />
          </mxGeometry>
        </mxCell>
      </root>
    </mxGraphModel>
  </diagram>
</mxfile>
